<?xml version="1.0" standalone="no"?>
<!DOCTYPE svg PUBLIC "-//W3C//DTD SVG 20010904//EN"
 "http://www.w3.org/TR/2001/REC-SVG-20010904/DTD/svg10.dtd">
<svg version="1.0" xmlns="http://www.w3.org/2000/svg"
 width="593.000000pt" height="330.000000pt" viewBox="0 0 593.000000 330.000000"
 preserveAspectRatio="xMidYMid meet">

<g transform="translate(0.000000,330.000000) scale(0.100000,-0.100000)"
fill="#000000" stroke="none">
<path d="M0 1650 l0 -1650 2965 0 2965 0 0 1650 0 1650 -2965 0 -2965 0 0
-1650z m1566 1346 c88 -30 509 -228 844 -397 183 -93 262 -138 279 -160 52
-67 52 -63 52 -768 0 -439 -3 -672 -11 -705 -19 -86 -58 -128 -173 -190 -140
-75 -689 -339 -875 -421 -153 -67 -154 -67 -230 -63 -87 5 -135 25 -668 281
-557 268 -531 252 -589 367 l-27 54 6 646 c3 356 10 671 16 699 10 54 30 89
72 128 35 33 967 486 1108 538 54 21 119 17 196 -9z m1758 -525 c80 -39 166
-142 166 -200 0 -16 -11 -21 -69 -31 -101 -17 -123 -12 -143 32 -44 93 -176
87 -209 -9 -16 -46 -17 -203 -1 -259 24 -85 85 -122 153 -94 34 14 64 53 54
69 -3 6 -28 13 -55 17 l-50 7 0 58 0 59 165 0 165 0 0 -134 c0 -73 3 -154 6
-180 l7 -46 -39 0 c-29 0 -46 7 -70 31 l-31 30 -59 -30 c-33 -16 -80 -35 -106
-40 -126 -29 -289 56 -356 184 -25 47 -27 59 -27 180 0 124 1 133 29 185 32
62 96 134 141 157 90 48 245 54 329 14z m2183 -3 c65 -33 130 -99 160 -165 21
-46 27 -75 30 -167 7 -145 -14 -204 -96 -287 -74 -74 -140 -99 -256 -99 -145
0 -247 57 -310 171 -29 53 -30 57 -30 199 0 131 3 149 23 187 48 92 121 152
215 178 75 21 204 13 264 -17z m-1695 -230 c3 -214 6 -258 21 -285 34 -64 141
-62 179 3 15 26 19 66 25 282 l6 252 90 0 89 0 -5 -272 c-3 -197 -8 -284 -18
-313 -19 -56 -76 -109 -145 -135 -52 -19 -73 -21 -174 -18 -129 5 -176 21
-225 80 -55 65 -58 82 -66 373 -3 149 -4 273 -2 278 2 4 53 7 112 7 l109 0 4
-252z m1118 172 l0 -80 -100 0 -100 0 0 -254 c0 -139 -3 -268 -6 -285 l-6 -31
-108 0 -107 0 -6 152 c-4 83 -7 211 -7 285 l0 133 -100 0 -100 0 0 80 0 80
320 0 320 0 0 -80z m-1758 -730 c145 -12 215 -36 262 -91 72 -84 70 -178 -6
-253 l-40 -40 45 -41 c56 -50 67 -71 67 -132 0 -94 -36 -165 -102 -199 -59
-31 -174 -44 -379 -44 -195 0 -199 0 -213 23 -25 41 -29 738 -3 763 23 23 187
29 369 14z m993 -10 c19 -16 21 -148 3 -173 -11 -14 -37 -17 -178 -19 l-165
-3 0 -45 0 -45 103 -5 c76 -4 105 -9 112 -20 6 -8 9 -46 8 -85 -3 -63 -5 -71
-28 -82 -14 -7 -62 -13 -112 -13 l-88 0 0 -44 0 -44 180 -7 180 -7 0 -93 c0
-75 -3 -94 -16 -99 -9 -3 -143 -6 -299 -6 -231 0 -286 3 -298 14 -27 27 -32
716 -6 768 12 22 85 26 376 23 154 -1 217 -6 228 -15z m538 9 c35 -9 42 -17
67 -72 34 -78 168 -448 211 -586 43 -136 43 -135 -97 -139 -129 -3 -138 1
-164 78 l-19 55 -109 3 -110 3 -16 -55 c-22 -75 -40 -86 -147 -86 -109 0 -118
8 -99 83 18 74 133 397 199 562 53 133 58 141 91 152 44 15 143 16 193 2z
m1009 -19 c13 -16 18 -40 18 -85 0 -93 -2 -95 -74 -95 -33 0 -77 -3 -98 -6
l-36 -6 -4 -272 c-2 -195 -7 -277 -16 -293 -12 -22 -19 -23 -121 -23 -89 0
-111 3 -122 17 -11 12 -15 79 -19 297 l-5 281 -95 5 c-88 5 -95 7 -108 30 -15
28 -9 135 9 156 15 18 106 22 404 19 243 -3 250 -4 267 -25z"/>
<path d="M1325 2911 c-130 -55 -471 -214 -762 -356 -282 -137 -293 -147 -313
-258 -7 -37 -10 -275 -8 -684 3 -692 1 -670 66 -725 39 -33 188 -108 572 -291
382 -181 513 -238 562 -244 48 -7 107 14 348 124 276 127 789 380 825 407 58
45 58 44 62 702 4 617 -1 764 -32 811 -17 25 -273 154 -741 373 -438 205 -432
204 -579 141z m186 -698 c11 -13 15 -108 17 -497 2 -265 0 -514 -3 -554 l-7
-73 -61 3 -62 3 0 558 c0 485 2 559 15 567 25 16 86 12 101 -7z m-226 -139
c15 -15 16 -57 13 -420 -3 -358 -5 -405 -19 -420 -26 -26 -57 -10 -65 34 -4
20 -8 204 -8 407 -1 389 2 415 44 415 10 0 26 -7 35 -16z m411 2 c18 -14 19
-29 17 -392 -1 -208 -5 -395 -8 -416 -8 -44 -38 -60 -64 -34 -14 15 -16 60
-16 427 0 353 2 411 15 419 21 13 33 12 56 -4z m-746 -26 c13 -8 15 -61 15
-382 0 -381 -4 -418 -39 -418 -39 0 -41 20 -41 405 0 301 3 375 14 388 15 19
29 21 51 7z m1071 -7 c11 -13 14 -82 12 -372 -2 -196 -7 -369 -11 -386 -12
-42 -48 -47 -62 -9 -13 33 -10 752 3 772 12 17 42 15 58 -5z m-911 -113 c13
-8 15 -49 15 -269 0 -236 -2 -262 -18 -278 -23 -23 -48 -8 -60 37 -10 40 -5
490 6 508 10 14 36 16 57 2z m750 0 c12 -8 15 -47 18 -232 2 -123 -1 -243 -5
-267 -10 -54 -35 -74 -60 -48 -16 16 -18 44 -21 260 -3 155 0 252 7 270 11 28
34 34 61 17z m-1052 -92 c8 -8 12 -63 12 -183 0 -176 -4 -195 -41 -195 -38 0
-44 26 -44 195 0 123 3 166 14 178 16 20 42 22 59 5z m1360 0 c8 -8 12 -63 12
-183 0 -176 -4 -195 -41 -195 -38 0 -44 26 -44 195 0 123 3 166 14 178 16 20
42 22 59 5z m-1500 -181 c2 -110 0 -128 -14 -134 -9 -3 -20 0 -25 8 -10 17
-12 242 -2 253 4 4 14 5 23 4 12 -3 15 -25 18 -131z m1626 111 c8 -30 7 -196
0 -226 -10 -37 -38 -23 -46 23 -9 50 -10 188 -2 209 9 24 41 19 48 -6z m-1734
-43 c18 -21 8 -121 -14 -143 -15 -15 -18 -15 -26 -2 -11 17 -14 143 -3 153 11
11 30 8 43 -8z m1840 -11 c11 -28 13 -104 4 -128 -8 -22 -31 -20 -44 3 -14 27
-13 124 2 139 18 18 27 15 38 -14z"/>
<path d="M5287 2319 c-36 -28 -50 -85 -51 -209 0 -85 3 -113 19 -145 24 -48
57 -67 108 -61 76 9 97 54 97 211 -1 124 -11 174 -45 203 -34 29 -93 30 -128
1z"/>
<path d="M2840 1284 l0 -356 238 4 c229 3 239 4 285 28 62 31 87 67 94 133 7
71 -13 108 -82 153 -30 19 -55 41 -55 48 0 7 18 26 41 42 62 42 79 70 79 124
0 55 -27 102 -78 137 -38 25 -82 30 -339 37 l-183 5 0 -355z m345 235 c49 -14
64 -33 65 -85 0 -69 -14 -78 -124 -82 l-96 -4 0 81 c0 66 3 82 18 90 23 14 87
14 137 0z m55 -329 c29 -37 25 -82 -9 -119 -28 -30 -32 -31 -114 -31 l-85 0
-4 71 c-5 104 3 112 109 107 76 -3 86 -5 103 -28z"/>
<path d="M3072 1439 c3 -62 15 -69 87 -49 31 8 42 17 47 36 10 38 -15 56 -81
62 l-56 5 3 -54z"/>
<path d="M3070 1130 l0 -50 53 0 c62 0 97 20 97 56 0 30 -31 44 -101 44 l-49
0 0 -50z"/>
<path d="M3590 1280 l0 -350 275 0 275 0 0 60 0 60 -175 0 -175 0 0 85 0 85
105 0 105 0 0 59 0 59 -92 4 c-51 2 -99 7 -105 11 -9 6 -13 34 -13 83 l0 74
109 0 c59 0 136 3 170 6 l61 7 0 53 0 54 -270 0 -270 0 0 -350z"/>
<path d="M4456 1517 c-21 -61 -74 -213 -117 -336 -44 -123 -79 -230 -79 -238
0 -10 19 -13 74 -13 l74 0 22 58 c13 31 28 63 33 70 7 8 45 12 128 12 134 0
134 0 165 -92 l16 -48 94 0 c83 0 94 2 94 18 0 9 -39 127 -86 262 -47 135 -99
284 -116 333 l-30 87 -116 0 -117 0 -39 -113z m166 -119 c9 -19 26 -63 38 -98
28 -83 21 -92 -74 -88 -69 3 -71 4 -74 31 -3 27 40 158 61 185 15 19 30 10 49
-30z"/>
<path d="M4566 1303 c-9 -26 -16 -48 -16 -50 0 -2 16 -3 35 -3 29 0 35 4 35
20 0 20 -26 80 -34 80 -2 0 -11 -21 -20 -47z"/>
<path d="M5070 1575 l0 -55 105 0 105 0 0 -295 0 -295 100 0 100 0 0 295 0
295 105 0 105 0 0 55 0 55 -310 0 -310 0 0 -55z"/>
</g>
</svg>
